<?xml version="1.0" encoding="UTF-8"?>
<svg version="1.1" xmlns="http://www.w3.org/2000/svg" width="1024" height="1024">
<path d="M0 0 C4.38982676 2.47586229 7.51443942 6.03110711 9.8125 10.5 C10.58487403 14.36673037 10.95180492 18.08318909 11.01782227 22.02124023 C11.04777031 23.6327018 11.04777031 23.6327018 11.07832336 25.27671814 C11.10336189 27.02499657 11.10336189 27.02499657 11.12890625 28.80859375 C11.14950607 30.05125504 11.1701059 31.29391632 11.19132996 32.57423401 C11.24594737 35.98329194 11.29591647 39.39236007 11.34391785 42.80151367 C11.37504207 44.94039136 11.4091376 47.07920128 11.44421387 49.21801758 C11.71408086 65.75309539 11.85216986 82.27994241 11.71862602 98.81703377 C11.69934068 101.2696498 11.68306092 103.72226774 11.66773987 106.1749115 C11.65738167 107.78726237 11.6469603 109.39961284 11.63647461 111.01196289 C11.63136777 111.80211131 11.62626093 112.59225973 11.62099934 113.40635204 C11.58789093 118.0999773 11.5305689 122.79258968 11.45620441 127.48573208 C11.41461003 130.42404774 11.39362314 133.36226966 11.37761879 136.30082512 C11.35998214 138.30597337 11.31622042 140.31083927 11.27153015 142.31556702 C11.25144563 149.16052572 11.74478162 153.8977012 15.67364502 159.61279297 C17.81578197 163.16254775 17.56955411 166.53477399 16.8125 170.5 C12.93828603 183.98866241 5.03796001 197.88855539 -4.1875 208.5 C-4.8475 208.5 -5.5075 208.5 -6.1875 208.5 C-6.5278125 209.5828125 -6.5278125 209.5828125 -6.875 210.6875 C-8.4589113 214.08159565 -10.49475103 215.90175455 -13.1875 218.5 C-14.00460449 219.31186768 -14.82170898 220.12373535 -15.66357422 220.96020508 C-16.5145166 221.80478271 -17.36545898 222.64936035 -18.2421875 223.51953125 C-19.68838274 224.95834458 -21.13409145 226.39764481 -22.57958984 227.8371582 C-23.563712 228.81625767 -24.54873062 229.79445695 -25.53466797 230.77172852 C-32.25553599 237.40837536 -32.25553599 237.40837536 -38.59375 244.40625 C-43.6573253 250.32130984 -49.28950992 255.70678584 -54.8125 261.1875 C-55.94294381 262.31291457 -57.07315372 263.43856412 -58.203125 264.56445312 C-60.27932238 266.63255747 -62.3568659 268.69928792 -64.43603516 270.7644043 C-65.34401855 271.66715088 -66.25200195 272.56989746 -67.1875 273.5 C-68.08903809 274.38921143 -68.99057617 275.27842285 -69.91943359 276.19458008 C-72.23580927 278.46129402 -72.23580927 278.46129402 -74.1875 281.0625 C-76.30628607 283.64477053 -78.55952922 285.44890086 -81.1875 287.5 C-82.86658851 289.15415155 -84.53192354 290.82231644 -86.1875 292.5 C-106.1875 312.5 -106.1875 312.5 -108.66674805 314.97705078 C-111.18534475 317.49784287 -113.69681391 320.02555314 -116.20703125 322.5546875 C-117.64584458 324.00088274 -119.08514481 325.44659145 -120.5246582 326.89208984 C-121.50375767 327.876212 -122.48195695 328.86123062 -123.45922852 329.84716797 C-128.66938414 335.10209493 -133.9144464 340.25111767 -139.5402832 345.06445312 C-141.61043077 346.86858351 -143.49317542 348.8142739 -145.375 350.8125 C-149.01417125 354.48326128 -152.82354907 357.80069714 -156.875 361 C-157.40955811 361.43352783 -157.94411621 361.86705566 -158.49487305 362.3137207 C-161.99108575 365.00897697 -164.76495487 366.27124767 -169.1875 366.5 C-171.77980504 364.71220342 -172.17417605 363.53997185 -173.1875 360.5 C-173.43177885 357.76468002 -173.61611622 355.05382532 -173.75 352.3125 C-173.81477539 351.02569336 -173.81477539 351.02569336 -173.88085938 349.71289062 C-174.24776716 341.30895516 -174.22139578 332.9095923 -174.1875 324.5 C-173.65921974 284.34054989 -173.65921974 284.34054989 -188.1875 247.5 C-189.1775 247.17 -190.1675 246.84 -191.1875 246.5 C-191.27128906 245.77425781 -191.35507812 245.04851562 -191.44140625 244.30078125 C-193.83700864 235.30786548 -205.24416388 226.99550943 -212.98242188 222.44433594 C-221.71366103 217.59511298 -230.51043516 214.01868811 -240.1875 211.5 C-240.5175 212.16 -240.8475 212.82 -241.1875 213.5 C-241.1875 212.84 -241.1875 212.18 -241.1875 211.5 C-246.44867662 211.39959587 -251.70927117 211.32782377 -256.97119141 211.28027344 C-258.75351703 211.2604093 -260.53577975 211.2333084 -262.31787109 211.19824219 C-274.31108786 210.96851296 -284.69523597 211.92266987 -296.1875 215.5 C-297.43023682 215.87882324 -298.67297363 216.25764648 -299.95336914 216.64794922 C-310.19383438 219.87715021 -319.05536689 225.30479977 -327.87109375 231.3359375 C-330.1875 232.5 -330.1875 232.5 -332.26171875 232.31640625 C-338.73978273 229.57012761 -343.2065623 225.77920005 -347.546875 220.26953125 C-349.3024597 218.37600775 -350.89259004 217.61852755 -353.1875 216.5 C-353.89997732 214.8523962 -354.56150383 213.18236471 -355.1875 211.5 C-356.51131517 209.82576317 -357.84326661 208.15788785 -359.1875 206.5 C-359.1875 205.84 -359.1875 205.18 -359.1875 204.5 C-359.8475 204.5 -360.5075 204.5 -361.1875 204.5 C-361.73277344 203.48292969 -361.73277344 203.48292969 -362.2890625 202.4453125 C-364.80990981 197.77851312 -367.36319985 193.17798781 -370.1875 188.6875 C-382.00543483 168.93951491 -385.37518946 147.04743425 -385.37280273 124.40454102 C-385.37501773 122.04360655 -385.39330849 119.68311949 -385.41210938 117.32226562 C-385.41503879 115.82031409 -385.41702661 114.31836035 -385.41796875 112.81640625 C-385.42515427 112.11125381 -385.43233978 111.40610138 -385.43974304 110.67958069 C-385.41636407 105.72886407 -385.41636407 105.72886407 -383.1875 103.5 C-382.26173127 100.77871167 -381.3990493 98.06091949 -380.5625 95.3125 C-377.73999418 86.41941626 -373.88215975 78.53797821 -369.1875 70.5 C-368.65511719 69.53707031 -368.12273437 68.57414062 -367.57421875 67.58203125 C-367.11660156 66.89496094 -366.65898437 66.20789063 -366.1875 65.5 C-365.5275 65.5 -364.8675 65.5 -364.1875 65.5 C-363.92195313 64.91734375 -363.65640625 64.3346875 -363.3828125 63.734375 C-361.28673967 59.8162258 -358.1871212 56.74860162 -355.1875 53.5 C-354.57648438 52.83484375 -353.96546875 52.1696875 -353.3359375 51.484375 C-337.99488908 35.44887583 -314.99214397 23.72330978 -292.57885742 22.33886719 C-272.89777075 22.04221072 -253.8499865 23.00976593 -235.9453125 32.15625 C-233.24931241 33.7190111 -233.24931241 33.7190111 -230.1875 33.5 C-229.17223553 34.48449888 -228.17615035 35.48877773 -227.1875 36.5 C-225.07672815 37.86545888 -222.95687652 39.19008278 -220.8125 40.5 C-208.85348695 48.00736842 -196.8505689 57.66601745 -188.5 69.125 C-186.39556556 71.76414571 -186.39556556 71.76414571 -183.3125 71.9375 C-179.29452976 70.08923369 -177.77347199 67.69296679 -175.21484375 64.16015625 C-158.06060831 41.65141957 -130.50165402 26.75539488 -102.66796875 22.9375 C-86.81018566 21.1902437 -67.31142698 20.40413425 -53.7265625 30.21875 C-47.38596897 35.49721365 -44.27641375 40.29548736 -43.1875 48.5 C-42.92479147 51.8148596 -42.78204953 55.13064138 -42.65234375 58.453125 C-42.61060532 59.51186829 -42.56886688 60.57061157 -42.52586365 61.66143799 C-42.13010076 72.99563516 -42.03595562 84.331913 -41.94140625 95.671875 C-41.93301098 96.66110458 -41.92461571 97.65033417 -41.91596603 98.66954041 C-41.83804952 107.98519574 -41.76742854 117.30088995 -41.71069336 126.61669922 C-41.67892971 131.76139336 -41.63772078 136.90593983 -41.59049797 142.05051422 C-41.57453444 143.99453363 -41.56218696 145.93858634 -41.55359077 147.88265228 C-41.54144858 150.58045152 -41.51732133 153.27789866 -41.49047852 155.97558594 C-41.4895948 157.16608299 -41.4895948 157.16608299 -41.48869324 158.38063049 C-41.43408564 162.51866938 -41.04448092 165.77639151 -39.1875 169.5 C-33.90550407 170.69988045 -33.90550407 170.69988045 -29.1875 168.5 C-28.60641131 166.6542033 -28.60641131 166.6542033 -28.50830078 164.51123047 C-28.44402893 163.70361267 -28.37975708 162.89599487 -28.3135376 162.06390381 C-28.10459502 157.81351591 -28.04495167 153.57545074 -28.0546875 149.3203125 C-28.05373077 148.38573212 -28.05277405 147.45115173 -28.05178833 146.48825073 C-28.05111256 144.5302524 -28.05292443 142.57225175 -28.05712891 140.61425781 C-28.06252232 137.6125797 -28.05714488 134.61104874 -28.05078125 131.609375 C-28.05144143 129.7005205 -28.05272134 127.7916661 -28.0546875 125.8828125 C-28.05165115 124.53752975 -28.05165115 124.53752975 -28.04855347 123.16506958 C-28.05170563 122.33345306 -28.05485779 121.50183655 -28.05810547 120.64501953 C-28.05890106 119.91493683 -28.05969666 119.18485413 -28.06051636 118.43264771 C-28.11997569 116.28032503 -28.11997569 116.28032503 -29.1875 113.5 C-29.03125 111.30859375 -29.03125 111.30859375 -28.6875 108.9375 C-28.11431056 105.59930163 -28.11431056 105.59930163 -29.1875 102.5 C-29.50951741 97.67921002 -29.15992212 93.22319314 -28.1875 88.5 C-28.5175 87.51 -28.8475 86.52 -29.1875 85.5 C-29.0225 84.4275 -28.8575 83.355 -28.6875 82.25 C-28.15481137 78.49016545 -28.31771191 75.07290627 -28.65234375 71.29296875 C-29.53210658 59.90322571 -29.29381774 48.4774357 -29.25 37.0625 C-29.24497335 34.77018327 -29.24041251 32.47786547 -29.23632812 30.18554688 C-29.22541862 24.62367417 -29.20877351 19.06184223 -29.1875 13.5 C-28.5275 13.5 -27.8675 13.5 -27.1875 13.5 C-27.14625 12.819375 -27.105 12.13875 -27.0625 11.4375 C-25.41190685 5.89622299 -21.79068461 2.43771175 -16.875 -0.4375 C-10.92449727 -2.15205163 -5.77946618 -2.48164101 0 0 Z M-92.1875 84.5 C-93.23353066 87.63809198 -93.32045913 89.85179224 -93.33276367 93.14550781 C-93.33914352 94.30391174 -93.34552338 95.46231567 -93.35209656 96.65582275 C-93.35320938 97.9089325 -93.3543222 99.16204224 -93.35546875 100.453125 C-93.35879715 101.74184509 -93.36212555 103.03056519 -93.36555481 104.3583374 C-93.37154269 107.08867225 -93.37339518 109.81897546 -93.37280273 112.54931641 C-93.3727014 116.03382298 -93.38632494 119.51812445 -93.40357494 123.00258255 C-93.41742955 126.34026616 -93.4167855 129.67791305 -93.41796875 133.015625 C-93.42515427 134.26063782 -93.43233978 135.50565063 -93.43974304 136.78839111 C-93.57726808 146.58290569 -93.57726808 146.58290569 -89.85546875 155.42578125 C-87.62717288 156.86086641 -86.12747475 156.80173803 -83.5 156.6875 C-82.69175781 156.66042969 -81.88351562 156.63335938 -81.05078125 156.60546875 C-80.12845703 156.55326172 -80.12845703 156.55326172 -79.1875 156.5 C-79.1875 155.84 -79.1875 155.18 -79.1875 154.5 C-78.548125 154.396875 -77.90875 154.29375 -77.25 154.1875 C-76.569375 153.960625 -75.88875 153.73375 -75.1875 153.5 C-74.10629451 150.25638353 -74.04760184 147.86855208 -74.02636719 144.45556641 C-74.01675964 143.21062408 -74.0071521 141.96568176 -73.99725342 140.68301392 C-73.99240547 139.32253198 -73.98812664 137.96204791 -73.984375 136.6015625 C-73.97862096 135.20535277 -73.97286326 133.80914305 -73.96710205 132.41293335 C-73.95660151 129.48589714 -73.95075262 126.55888833 -73.94726562 123.63183594 C-73.94178194 119.88698481 -73.91775304 116.14249747 -73.88929367 112.39776039 C-73.87064132 109.51350863 -73.86546033 106.62934406 -73.86392975 103.74503708 C-73.86090868 102.36477036 -73.85289853 100.98450498 -73.83974457 99.60429764 C-73.82263131 97.67067954 -73.82641676 95.73691092 -73.83105469 93.80322266 C-73.82740906 92.7041861 -73.82376343 91.60514954 -73.82000732 90.47280884 C-74.23716801 87.09821377 -75.17806331 85.21884995 -77.1875 82.5 C-81.92616647 80.13066677 -88.58048948 80.44211317 -92.1875 84.5 Z M-290.1875 101.5 C-291.033125 102.0775 -291.87875 102.655 -292.75 103.25 C-301.30739905 111.14913759 -307.79486925 123.12870769 -308.59375 134.8125 C-309.03763062 148.37824117 -306.44027905 159.41242489 -298.1875 170.5 C-297.5275 170.5 -296.8675 170.5 -296.1875 170.5 C-295.95160156 171.0775 -295.71570313 171.655 -295.47265625 172.25 C-291.47783147 179.24397895 -282.70323963 184.12397582 -275.1875 186.5 C-261.40766879 189.97995737 -249.53531006 188.84611402 -236.9375 181.8125 C-226.2038839 174.86004412 -217.99345946 164.8002765 -214.72265625 152.32421875 C-211.83477255 137.08378142 -213.610841 124.50396214 -222.1875 111.5 C-224.34811384 108.65969306 -226.52928908 105.89101961 -229.1875 103.5 C-229.8475 103.5 -230.5075 103.5 -231.1875 103.5 C-231.1875 102.84 -231.1875 102.18 -231.1875 101.5 C-233.34732683 100.1956102 -235.51428696 98.90675218 -237.6875 97.625 C-238.28820312 97.26019531 -238.88890625 96.89539063 -239.5078125 96.51953125 C-255.72665373 87.02978372 -276.10140878 89.71301793 -290.1875 101.5 Z " fill="#F6F0E3" transform="translate(673.1875,366.5)"/>
<path d="M0 0 C4.32603835 2.41749202 6.82697388 5.18478906 8.8125 9.76171875 C10.13006358 14.7519908 10.22800454 19.60632235 10.375 24.75 C10.41004639 25.87003418 10.44509277 26.99006836 10.48120117 28.14404297 C10.58654802 31.86663835 10.67004631 35.58927639 10.75 39.3125 C10.78414248 40.6853891 10.81848874 42.05827315 10.85302734 43.43115234 C10.93722506 46.91889074 10.99488329 50.40629287 11.03509521 53.89480591 C11.06197131 55.89809233 11.10721804 57.90110536 11.15283203 59.90405273 C11.20041069 67.69936012 10.98314674 74.00586349 5.23120117 79.85766602 C0.2691926 84.15897851 -2.95939992 84.67417749 -9.359375 84.58203125 C-14.54212119 84.09877519 -18.01944907 82.3761768 -21.81640625 78.86328125 C-25.17768626 74.60182939 -25.63573383 70.15890506 -25.859375 64.890625 C-25.89600754 64.15554214 -25.93264008 63.42045929 -25.97038269 62.6631012 C-26.37500313 53.81273988 -26.50766491 44.95657933 -26.54516602 36.09790039 C-26.55682053 34.18311249 -26.57747739 32.26836029 -26.60668945 30.35375977 C-26.64939472 27.53640479 -26.66551895 24.71998206 -26.67578125 21.90234375 C-26.69328934 21.05639145 -26.71079742 20.21043915 -26.72883606 19.33885193 C-26.70501156 12.77989686 -25.13735475 7.23711094 -20.43359375 2.47265625 C-19.85738281 2.11042969 -19.28117188 1.74820312 -18.6875 1.375 C-17.81931641 0.80458984 -17.81931641 0.80458984 -16.93359375 0.22265625 C-11.3849001 -2.77698556 -5.58878378 -2.59068856 0 0 Z " fill="#F6F0E3" transform="translate(730.25,416.6875)"/>
<path d="M0 0 C0.33 0 0.66 0 1 0 C1.09344778 20.36659159 1.1639814 40.73313967 1.20724869 61.0999012 C1.22787257 70.55658256 1.25598985 80.01313071 1.30175781 89.46972656 C1.3416309 97.7122503 1.36743408 105.95467756 1.37635398 114.19729507 C1.38156794 118.5616048 1.39381893 122.92563852 1.42292023 127.28985977 C1.45009685 131.39878496 1.45844051 135.50732076 1.45243073 139.61632729 C1.45352996 141.12318221 1.46147073 142.63005034 1.4768219 144.13682747 C1.49678642 146.19774224 1.49191752 148.25719569 1.48101807 150.31814575 C1.48470524 151.47038698 1.48839241 152.62262821 1.49219131 153.80978584 C0.89354409 157.69001042 -0.64142224 159.90814698 -3 163 C-3.66 162.67 -4.32 162.34 -5 162 C-4.51176758 161.40396973 -4.02353516 160.80793945 -3.52050781 160.19384766 C-1.27073425 155.46816723 -1.61031298 151.06698551 -1.671875 145.8984375 C-1.67374817 144.82502106 -1.67562134 143.75160461 -1.67755127 142.6456604 C-1.68426282 140.38125492 -1.69815941 138.11686087 -1.71875 135.85253906 C-1.74994833 132.38075015 -1.75972707 128.90941532 -1.765625 125.4375 C-1.77479361 123.23697361 -1.78516893 121.03645185 -1.796875 118.8359375 C-1.80324982 117.27496841 -1.80324982 117.27496841 -1.80975342 115.6824646 C-1.81936096 114.71781281 -1.82896851 113.75316101 -1.83886719 112.75927734 C-1.84569519 111.91054047 -1.85252319 111.06180359 -1.85955811 110.18734741 C-1.91824954 107.82059888 -1.91824954 107.82059888 -3 105 C-2.84375 102.80859375 -2.84375 102.80859375 -2.5 100.4375 C-1.92681056 97.09930163 -1.92681056 97.09930163 -3 94 C-3.32201741 89.17921002 -2.97242212 84.72319314 -2 80 C-2.33 79.01 -2.66 78.02 -3 77 C-2.835 75.9275 -2.67 74.855 -2.5 73.75 C-1.96731137 69.99016545 -2.13021191 66.57290627 -2.46484375 62.79296875 C-3.34460658 51.40322571 -3.10631774 39.9774357 -3.0625 28.5625 C-3.05747335 26.27018327 -3.05291251 23.97786547 -3.04882812 21.68554688 C-3.03791862 16.12367417 -3.02127351 10.56184223 -3 5 C-2.34 5 -1.68 5 -1 5 C-0.67 3.35 -0.34 1.7 0 0 Z " fill="#C9BDB0" transform="translate(647,375)"/>
<path d="M0 0 C3.60039794 2.14491792 5.47016124 4.14077842 7 8 C7.26742554 10.83236694 7.26742554 10.83236694 7.29052734 14.14208984 C7.3096669 16.00454849 7.3096669 16.00454849 7.32919312 17.90463257 C7.33225088 19.25673262 7.33447858 20.60883477 7.3359375 21.9609375 C7.34236801 23.35332373 7.34909656 24.74570862 7.35610962 26.13809204 C7.36807396 29.05498384 7.37179134 31.97175728 7.37060547 34.88867188 C7.37040237 38.61673597 7.3976981 42.34403701 7.43214989 46.07192039 C7.45444613 48.94765675 7.45844219 51.82321028 7.45738602 54.6990242 C7.45973813 56.07288873 7.46853979 57.44675859 7.48405075 58.82053757 C7.62110795 72.21374049 7.62110795 72.21374049 3 77 C-0.68228915 79.45485943 -3.72454348 79.82932584 -8 79 C-10.3894658 77.55625961 -12.00320659 75.99679341 -14 74 C-13.67 73.01 -13.34 72.02 -13 71 C-12.525625 71.804375 -12.05125 72.60875 -11.5625 73.4375 C-8.00982428 76.99017572 -4.85927675 76.88578623 0 77 C-0.33 76.01 -0.66 75.02 -1 74 C0.32 74 1.64 74 3 74 C4.20250252 70.39249244 4.1433394 67.09430851 4.1328125 63.33984375 C4.13376923 62.59416641 4.13472595 61.84848907 4.13571167 61.08021545 C4.13639151 59.50586869 4.1345509 57.9315191 4.13037109 56.35717773 C4.1250125 53.9431329 4.13032655 51.52927348 4.13671875 49.11523438 C4.13605808 47.58593709 4.13477715 46.05663992 4.1328125 44.52734375 C4.13483673 43.80336899 4.13686096 43.07939423 4.13894653 42.33348083 C4.18338546 38.54081642 4.18338546 38.54081642 3 35 C3.66 35 4.32 35 5 35 C5 26.09 5 17.18 5 8 C4.34 7.67 3.68 7.34 3 7 C2.375 4.9375 2.375 4.9375 2 3 C0.22950311 2.94589313 -1.54146849 2.90715881 -3.3125 2.875 C-4.29863281 2.85179687 -5.28476562 2.82859375 -6.30078125 2.8046875 C-9.22406527 2.79317361 -9.22406527 2.79317361 -12 5 C-13.13066918 8.39200753 -13.09758249 10.91718405 -13.0625 14.4921875 C-13.05391506 15.83797124 -13.04545712 17.18375579 -13.03710938 18.52954102 C-13.03090576 19.2384549 -13.02470215 19.94736877 -13.01831055 20.67776489 C-12.88108857 37.14417375 -13.29376446 53.54809293 -14 70 C-14.33 70 -14.66 70 -15 70 C-15.61487314 54.12776946 -16.10914378 38.25976549 -16.1875 22.375 C-16.20039062 21.10833496 -16.21328125 19.84166992 -16.2265625 18.53662109 C-16.22785156 17.35664551 -16.22914063 16.17666992 -16.23046875 14.9609375 C-16.23457764 13.92759277 -16.23868652 12.89424805 -16.24291992 11.82958984 C-15.87853195 7.58511087 -14.76708988 4.86007047 -11.9375 1.6875 C-7.90199449 -0.63076912 -4.55362954 -0.82643004 0 0 Z " fill="#B8AC9E" transform="translate(594,446)"/>
<path d="M0 0 C0.66 0.33 1.32 0.66 2 1 C2.86642212 4.84606417 3.13939549 8.58859182 3.20532227 12.52124023 C3.22528763 13.59554794 3.24525299 14.66985565 3.26582336 15.77671814 C3.28251572 16.94223709 3.29920807 18.10775604 3.31640625 19.30859375 C3.33700607 20.55125504 3.3576059 21.79391632 3.37882996 23.07423401 C3.43344737 26.48329194 3.48341647 29.89236007 3.53141785 33.30151367 C3.56254207 35.44039136 3.5966376 37.57920128 3.63171387 39.71801758 C3.90158086 56.25309539 4.03966986 72.77994241 3.90612602 89.31703377 C3.88684068 91.7696498 3.87056092 94.22226774 3.85523987 96.6749115 C3.84488167 98.28726237 3.8344603 99.89961284 3.82397461 101.51196289 C3.81631435 102.69718552 3.81631435 102.69718552 3.80849934 103.90635204 C3.77539093 108.5999773 3.7180689 113.29258968 3.64370441 117.98573208 C3.60211003 120.92404774 3.58112314 123.86226966 3.56511879 126.80082512 C3.54748214 128.80597337 3.50372042 130.81083927 3.45903015 132.81556702 C3.43894563 139.66052572 3.93228162 144.3977012 7.86114502 150.11279297 C9.99954227 153.65635066 9.77188631 157.04255114 9 161 C6.81001203 168.0872839 3.94357207 174.71949634 0 181 C-0.33 180.34 -0.66 179.68 -1 179 C-0.12318898 176.81958584 0.85144681 174.67800049 1.875 172.5625 C5.48799317 165.04243283 6.84339662 159.37847963 6 151 C4.94150164 148.56064241 3.71852547 147.08306118 2 145 C0.66494415 140.88340922 0.87511796 136.72976022 0.90234375 132.44750977 C0.90380402 131.58286606 0.90526428 130.71822235 0.9067688 129.82737732 C0.91057793 127.94281509 0.91669778 126.05825647 0.92483521 124.17370796 C0.93771501 121.14077674 0.94414936 118.10789003 0.94897461 115.07493591 C0.96229353 107.50283567 0.98585269 99.93077476 1.01037598 92.35870361 C1.03394078 84.99044359 1.0523058 77.62219757 1.0625 70.25390625 C1.06402069 69.21403187 1.06554138 68.17415749 1.06710815 67.10277176 C1.08813481 44.72637255 0.61686267 22.36691116 0 0 Z " fill="#BFB3A5" transform="translate(681,376)"/>
<path d="M0 0 C0.33 0.66 0.66 1.32 1 2 C0.67 2.99 0.34 3.98 0 5 C-0.09292504 6.7575138 -0.12791952 8.51835224 -0.12939453 10.27832031 C-0.13254669 11.35664124 -0.13569885 12.43496216 -0.13894653 13.54595947 C-0.1369223 14.7115741 -0.13489807 15.87718872 -0.1328125 17.078125 C-0.13376923 18.27806091 -0.13472595 19.47799683 -0.13571167 20.71429443 C-0.13639282 23.2563075 -0.13454306 25.7983223 -0.13037109 28.34033203 C-0.12504064 32.22041775 -0.13030865 36.10038673 -0.13671875 39.98046875 C-0.13605759 42.45052109 -0.13477565 44.92057335 -0.1328125 47.390625 C-0.13483673 48.5481427 -0.13686096 49.7056604 -0.13894653 50.89825439 C-0.34809793 63.14537278 -0.34809793 63.14537278 6 73 C11.06490609 76.26479598 17.22578034 75.69577554 23 75 C26.7790309 73.37243216 28.58213429 71.0345953 30.13034058 67.2013855 C31.01640087 63.93962521 31.24152109 61.27441375 31.22705078 57.90283203 C31.22682419 56.13167526 31.22682419 56.13167526 31.22659302 54.32473755 C31.21627045 53.06515228 31.20594788 51.80556702 31.1953125 50.5078125 C31.19106766 48.55619705 31.19106766 48.55619705 31.18673706 46.56515503 C31.17913675 43.1226418 31.15951973 39.68029997 31.1373291 36.237854 C31.11679261 32.71848875 31.10771873 29.19909553 31.09765625 25.6796875 C31.07627002 18.78638837 31.0421781 11.89320243 31 5 C33.48895293 7.48895293 33.29129386 8.34883631 33.4140625 11.79296875 C33.45313721 12.80117676 33.49221191 13.80938477 33.5324707 14.84814453 C33.56300537 15.95013184 33.59354004 17.05211914 33.625 18.1875 C33.66004639 19.32558105 33.69509277 20.46366211 33.73120117 21.63623047 C33.83677004 25.423929 33.91997495 29.21167971 34 33 C34.03407207 34.3787502 34.06841859 35.75749364 34.10302734 37.13623047 C34.18709406 40.61945375 34.2448428 44.10233858 34.28509521 47.58633423 C34.31200198 49.58795212 34.3572448 51.58929659 34.40283203 53.59057617 C34.45040038 61.38621855 34.23342163 67.69308383 28.48120117 73.54516602 C23.5191926 77.84647851 20.29060008 78.36167749 13.890625 78.26953125 C8.70787881 77.78627519 5.23055093 76.0636768 1.43359375 72.55078125 C-1.92496915 68.29277415 -2.38774641 63.85036493 -2.61328125 58.5859375 C-2.65012024 57.85126755 -2.68695923 57.1165976 -2.72491455 56.35966492 C-3.13077542 47.46977759 -3.2218643 38.57354205 -3.24023438 29.67553711 C-3.25011918 26.77755869 -3.28135897 23.8802405 -3.3125 20.98242188 C-3.3190167 19.11979578 -3.32427237 17.25716476 -3.328125 15.39453125 C-3.3404718 14.53825638 -3.3528186 13.68198151 -3.36553955 12.79975891 C-3.34677714 7.76346745 -2.70580775 4.41278846 0 0 Z " fill="#BBAEA0" transform="translate(707,423)"/>
<path d="M0 0 C2.69600009 1.5627611 2.69600009 1.5627611 5.7578125 1.34375 C6.77307697 2.32824888 7.76916215 3.33252773 8.7578125 4.34375 C10.86858435 5.70920888 12.98843598 7.03383278 15.1328125 8.34375 C27.09182555 15.85111842 39.0947436 25.50976745 47.4453125 36.96875 C49.54974694 39.60789571 49.54974694 39.60789571 52.6328125 39.78125 C56.6343797 37.94052909 58.15321509 35.57661597 60.6796875 32.04296875 C63.12923294 28.86132233 65.83544294 26.09118751 68.6953125 23.28125 C69.19248779 22.79221191 69.68966309 22.30317383 70.2019043 21.79931641 C71.38324208 20.64339485 72.5699412 19.49295641 73.7578125 18.34375 C74.4178125 18.67375 75.0778125 19.00375 75.7578125 19.34375 C74.984375 20.08238281 74.2109375 20.82101562 73.4140625 21.58203125 C67.33303773 27.48103629 62.15019472 33.12044723 57.671875 40.359375 C55.7578125 42.34375 55.7578125 42.34375 52.84375 42.953125 C48.73377898 42.14153579 47.45736656 40.50188215 44.7578125 37.34375 C43.55125 35.99410156 43.55125 35.99410156 42.3203125 34.6171875 C41.4746875 33.66070312 40.6290625 32.70421875 39.7578125 31.71875 C19.93839927 9.89097859 -7.94746541 -5.6507257 -37.7421875 -7.13671875 C-51.07138509 -7.57150877 -63.82936807 -7.04807427 -76.58984375 -2.84765625 C-79.83299562 -1.7897297 -82.86983498 -1.11396399 -86.2421875 -0.65625 C-85.2421875 -2.65625 -85.2421875 -2.65625 -83.28027344 -3.41821289 C-82.43754883 -3.6527417 -81.59482422 -3.88727051 -80.7265625 -4.12890625 C-79.80488281 -4.38865234 -78.88320313 -4.64839844 -77.93359375 -4.91601562 C-76.96292969 -5.18091797 -75.99226563 -5.44582031 -74.9921875 -5.71875 C-74.03699219 -5.98751953 -73.08179688 -6.25628906 -72.09765625 -6.53320312 C-48.83825151 -13.01930973 -21.71763652 -11.0943107 0 0 Z " fill="#C3B8AB" transform="translate(437.2421875,398.65625)"/>
<path d="M0 0 C1.57976845 2.82044425 2.2730716 4.9462006 2.41186523 8.16967773 C2.45030045 9.03528824 2.48873566 9.90089874 2.52833557 10.79273987 C2.55894577 11.76734665 2.58955597 12.74195343 2.62109375 13.74609375 C2.65883408 14.81097519 2.6965744 15.87585663 2.73545837 16.9730072 C3.30503168 35.91468551 3.10867974 54.88015026 3.06866455 73.82788086 C3.05828794 79.2726197 3.05383674 84.71736341 3.04882812 90.16210938 C3.03822183 100.77475209 3.02123883 111.3873736 3 122 C2.67 122 2.34 122 2 122 C1.96241577 121.10861328 1.96241577 121.10861328 1.92407227 120.19921875 C1.80691112 117.46598993 1.68473727 114.73300633 1.5625 112 C1.52318359 111.06542969 1.48386719 110.13085938 1.44335938 109.16796875 C1.40146484 108.24628906 1.35957031 107.32460938 1.31640625 106.375 C1.27974854 105.53710938 1.24309082 104.69921875 1.20532227 103.8359375 C1.04977729 101.68753034 0.79499592 99.54601985 0.4942627 97.41308594 C-0.08985369 92.78292448 -0.13345715 88.21629088 -0.11352539 83.5546875 C-0.11367142 82.64643723 -0.11381744 81.73818695 -0.1139679 80.80241394 C-0.11327612 77.82658425 -0.10551838 74.85081864 -0.09765625 71.875 C-0.09578946 69.80135126 -0.09436679 67.72770208 -0.09336853 65.65405273 C-0.08956393 60.21582811 -0.07975133 54.77763051 -0.06866455 49.3394165 C-0.05840608 43.78227097 -0.05386143 38.22512104 -0.04882812 32.66796875 C-0.03812711 21.77863401 -0.02107555 10.88931926 0 0 Z " fill="#C2B7A9" transform="translate(628,411)"/>
<path d="M0 0 C10.33439831 3.73336902 19.80191517 13.05355707 26.8671875 21.27734375 C27.34816895 21.83204346 27.82915039 22.38674316 28.32470703 22.95825195 C29.25792962 24.04956929 30.17390137 25.15593529 31.06982422 26.27807617 C32.47815209 28.01313127 32.47815209 28.01313127 35 30 C38.15153642 30.27426447 38.15153642 30.27426447 41 29 C42.82331009 27.34934059 42.82331009 27.34934059 44.1875 25.125 C47.13327006 21.00490268 50.33658254 17.47554704 53.9375 13.9375 C54.43467529 13.44846191 54.93185059 12.95942383 55.4440918 12.45556641 C56.62542958 11.29964485 57.8121287 10.14920641 59 9 C59.66 9.33 60.32 9.66 61 10 C60.2265625 10.73863281 59.453125 11.47726562 58.65625 12.23828125 C52.57522523 18.13728629 47.39238222 23.77669723 42.9140625 31.015625 C41 33 41 33 38.0859375 33.609375 C33.97596648 32.79778579 32.69955406 31.15813215 30 28 C29.195625 27.10023438 28.39125 26.20046875 27.5625 25.2734375 C26.716875 24.31695312 25.87125 23.36046875 25 22.375 C20.98605629 17.92356355 16.76933892 13.86444026 12.1875 10 C11.66091797 9.55575684 11.13433594 9.11151367 10.59179688 8.65380859 C8.02121944 6.53138038 5.40333005 4.56806872 2.61328125 2.75 C1.75089844 2.1725 0.88851563 1.595 0 1 C0 0.67 0 0.34 0 0 Z " fill="#BEB3A6" transform="translate(452,408)"/>
<path d="M0 0 C1.48388672 1.14208984 1.48388672 1.14208984 3 3 C3.32470703 5.61962891 3.32470703 5.61962891 3.2578125 8.7265625 C3.24363281 9.8403125 3.22945313 10.9540625 3.21484375 12.1015625 C3.18519531 13.26429688 3.15554688 14.42703125 3.125 15.625 C3.08185193 17.92961463 3.04257101 20.23430607 3.0078125 22.5390625 C2.98348145 23.56209473 2.95915039 24.58512695 2.93408203 25.63916016 C2.7282425 27.95727436 2.7282425 27.95727436 4 29 C6.33297433 29.04092937 8.66705225 29.04241723 11 29 C9.8125 30.5625 9.8125 30.5625 8 32 C5.5 32 5.5 32 3 31 C-0.74964603 26.47676195 -0.57842441 21.67138765 -0.75 16.0625 C-0.79253906 15.18142578 -0.83507812 14.30035156 -0.87890625 13.39257812 C-1.06557107 8.77780898 -0.98817206 4.54409423 0 0 Z " fill="#CFC6BB" transform="translate(500,701)"/>
<path d="M0 0 C0.33 0 0.66 0 1 0 C1.76816506 11.78310337 2.17019889 23.56771383 2.3125 35.375 C2.35697266 37.25481567 2.35697266 37.25481567 2.40234375 39.17260742 C2.47377381 50.1467937 2.47377381 50.1467937 -2 55 C-2.66 54.67 -3.32 54.34 -4 54 C-3.2733313 53.10921753 -3.2733313 53.10921753 -2.53198242 52.20043945 C-0.26386829 47.46215928 -0.51999826 42.98493563 -0.48828125 37.79296875 C-0.47033005 36.71243729 -0.45237885 35.63190582 -0.43388367 34.51863098 C-0.37979737 31.07496008 -0.34588955 27.63142768 -0.3125 24.1875 C-0.27932553 21.84959011 -0.24483576 19.51169849 -0.20898438 17.17382812 C-0.12407181 11.44934294 -0.05571469 5.7248398 0 0 Z " fill="#B4A698" transform="translate(646,483)"/>
<path d="M0 0 C35.54293629 -0.79336911 35.54293629 -0.79336911 52 7 C47.9255567 8.35814777 45.18531884 6.94745762 41.3125 5.5625 C40.61060547 5.31951172 39.90871094 5.07652344 39.18554688 4.82617188 C37.45421468 4.2255056 35.72671863 3.61380281 34 3 C33.67 3.66 33.34 4.32 33 5 C33 4.34 33 3.68 33 3 C22.11 2.34 11.22 1.68 0 1 C0 0.67 0 0.34 0 0 Z " fill="#B0A395" transform="translate(399,575)"/>
<path d="M0 0 C0.66 0.33 1.32 0.66 2 1 C1.2265625 1.73863281 0.453125 2.47726562 -0.34375 3.23828125 C-7.03819651 9.72608247 -12.79753282 16.22690198 -18 24 C-19.65 23.67 -21.3 23.34 -23 23 C-22.67 22.34 -22.34 21.68 -22 21 C-21.278125 20.79375 -20.55625 20.5875 -19.8125 20.375 C-16.29175064 18.65374476 -15.10048657 16.59918212 -12.890625 13.44140625 C-9.08500748 8.52712743 -4.45875763 4.31595045 0 0 Z " fill="#C2B5A8" transform="translate(511,417)"/>
<path d="M0 0 C0.33 0 0.66 0 1 0 C1 12.87 1 25.74 1 39 C0.67 39 0.34 39 0 39 C0 32.4 0 25.8 0 19 C-0.99 18.67 -1.98 18.34 -3 18 C-2.34 17.34 -1.68 16.68 -1 16 C-0.6936141 13.26565038 -0.4886664 10.61720179 -0.375 7.875 C-0.33632813 7.12089844 -0.29765625 6.36679687 -0.2578125 5.58984375 C-0.16348969 3.72696816 -0.08065338 1.86351745 0 0 Z " fill="#DED4C7" transform="translate(647,464)"/>
<path d="M0 0 C1.12588014 0.95729916 2.2506715 1.91587895 3.375 2.875 C4.00148438 3.40867187 4.62796875 3.94234375 5.2734375 4.4921875 C6.55836651 5.61432007 7.79371975 6.79371975 9 8 C5.41209425 7.70100785 4.21833224 7.23013399 1.6875 4.5625 C0 2 0 2 0 0 Z " fill="#B0A598" transform="translate(481,433)"/>
<path d="M0 0 C-0.33 0.66 -0.66 1.32 -1 2 C-2.32 1.67 -3.64 1.34 -5 1 C-5.33 1.66 -5.66 2.32 -6 3 C-6 2.34 -6 1.68 -6 1 C-7.32 0.67 -8.64 0.34 -10 0 C-6.7169902 -1.6415049 -3.57454967 -0.51888624 0 0 Z " fill="#C9BEB0" transform="translate(438,577)"/>
<path d="M0 0 C1.32 0.33 2.64 0.66 4 1 C4 1.66 4 2.32 4 3 C2.68 2.67 1.36 2.34 0 2 C0 1.34 0 0.68 0 0 Z " fill="#FFFFFF" transform="translate(715,501)"/>
<path d="M0 0 C0.33 0 0.66 0 1 0 C1 1.98 1 3.96 1 6 C0.67 6 0.34 6 0 6 C0 4.02 0 2.04 0 0 Z " fill="#FFFFFF" transform="translate(497,659)"/>
<path d="M0 0 C0.99 0.495 0.99 0.495 2 1 C1.67 1.99 1.34 2.98 1 4 C0.67 2.68 0.34 1.36 0 0 Z " fill="#FFFFFF" transform="translate(464,592)"/>
<path d="M0 0 C0.33 0 0.66 0 1 0 C1 1.98 1 3.96 1 6 C0.67 6 0.34 6 0 6 C0 4.02 0 2.04 0 0 Z " fill="#FFFFFF" transform="translate(644,504)"/>
<path d="M0 0 C0.66 0 1.32 0 2 0 C1.67 0.99 1.34 1.98 1 3 C0.67 2.01 0.34 1.02 0 0 Z " fill="#FFFFFF" transform="translate(480,609)"/>
<path d="M0 0 C1.32 0.33 2.64 0.66 4 1 C3.01 1.33 2.02 1.66 1 2 C0.67 1.34 0.34 0.68 0 0 Z " fill="#FFFFFF" transform="translate(723,502)"/>
<path d="M0 0 C0.33 0 0.66 0 1 0 C1 1.65 1 3.3 1 5 C0.67 5 0.34 5 0 5 C0 3.35 0 1.7 0 0 Z " fill="#FFFFFF" transform="translate(644,489)"/>
<path d="M0 0 C0.99 0.33 1.98 0.66 3 1 C2.01 1 1.02 1 0 1 C0 0.67 0 0.34 0 0 Z " fill="#FFFFFF" transform="translate(380,540)"/>
<path d="M0 0 C1 4 1 4 1 4 Z " fill="#FFFFFF" transform="translate(644,513)"/>
<path d="M0 0 C0.33 0.66 0.66 1.32 1 2 C0.34 1.67 -0.32 1.34 -1 1 C-0.67 0.67 -0.34 0.34 0 0 Z " fill="#FFFFFF" transform="translate(498,723)"/>
<path d="M0 0 C0.99 0.495 0.99 0.495 2 1 C1.01 1.495 1.01 1.495 0 2 C0 1.34 0 0.68 0 0 Z " fill="#FFFFFF" transform="translate(630,622)"/>
<path d="M0 0 C0.99 0.495 0.99 0.495 2 1 C1.01 1.495 1.01 1.495 0 2 C0 1.34 0 0.68 0 0 Z " fill="#FFFFFF" transform="translate(476,604)"/>
<path d="M0 0 C0.66 0 1.32 0 2 0 C1.67 0.66 1.34 1.32 1 2 C0.67 1.34 0.34 0.68 0 0 Z " fill="#FFFFFF" transform="translate(458,589)"/>
<path d="M0 0 C0.66 0 1.32 0 2 0 C1.67 0.66 1.34 1.32 1 2 C0.67 1.34 0.34 0.68 0 0 Z " fill="#FFFFFF" transform="translate(390,579)"/>
<path d="M0 0 C0.99 0.495 0.99 0.495 2 1 C1.01 1.495 1.01 1.495 0 2 C0 1.34 0 0.68 0 0 Z " fill="#FFFFFF" transform="translate(442,538)"/>
<path d="M0 0 C0.99 0.495 0.99 0.495 2 1 C1.01 1.495 1.01 1.495 0 2 C0 1.34 0 0.68 0 0 Z " fill="#FFFFFF" transform="translate(372,528)"/>
<path d="" fill="#FFFFFF" transform="translate(0,0)"/>
<path d="" fill="#FFFFFF" transform="translate(0,0)"/>
<path d="M0 0 C0.33 0.66 0.66 1.32 1 2 C0.34 1.67 -0.32 1.34 -1 1 C-0.67 0.67 -0.34 0.34 0 0 Z " fill="#FFFFFF" transform="translate(445,400)"/>
<path d="M0 0 C3 1 3 1 3 1 Z " fill="#FFFFFF" transform="translate(613,392)"/>
<path d="" fill="#FFFFFF" transform="translate(0,0)"/>
<path d="M0 0 C3 1 3 1 3 1 Z " fill="#FFFFFF" transform="translate(370,389)"/>
<path d="M0 0 C3 1 3 1 3 1 Z " fill="#FFFFFF" transform="translate(404,388)"/>
<path d="M0 0 C3 1 3 1 3 1 Z " fill="#FFFFFF" transform="translate(590,387)"/>
<path d="M0 0 C3 1 3 1 3 1 Z " fill="#FFFFFF" transform="translate(398,387)"/>
<path d="M0 0 C2 1 2 1 2 1 Z " fill="#FFFFFF" transform="translate(526,719)"/>
<path d="M0 0 C2 1 2 1 2 1 Z " fill="#FFFFFF" transform="translate(534,711)"/>
<path d="M0 0 C2 1 2 1 2 1 Z " fill="#FFFFFF" transform="translate(548,703)"/>
<path d="" fill="#FFFFFF" transform="translate(0,0)"/>
<path d="M0 0 C2 1 2 1 2 1 Z " fill="#FFFFFF" transform="translate(489,628)"/>
<path d="M0 0 C2 1 2 1 2 1 Z " fill="#FFFFFF" transform="translate(623,623)"/>
<path d="" fill="#FFFFFF" transform="translate(0,0)"/>
<path d="" fill="#FFFFFF" transform="translate(0,0)"/>
<path d="" fill="#FFFFFF" transform="translate(0,0)"/>
<path d="" fill="#FFFFFF" transform="translate(0,0)"/>
<path d="" fill="#FFFFFF" transform="translate(0,0)"/>
<path d="" fill="#FFFFFF" transform="translate(0,0)"/>
<path d="" fill="#FFFFFF" transform="translate(0,0)"/>
<path d="M0 0 C2 1 2 1 2 1 Z " fill="#FFFFFF" transform="translate(445,537)"/>
<path d="M0 0 C2 1 2 1 2 1 Z " fill="#FFFFFF" transform="translate(637,536)"/>
<path d="" fill="#FFFFFF" transform="translate(0,0)"/>
<path d="" fill="#FFFFFF" transform="translate(0,0)"/>
<path d="" fill="#FFFFFF" transform="translate(0,0)"/>
<path d="" fill="#FFFFFF" transform="translate(0,0)"/>
<path d="" fill="#FFFFFF" transform="translate(0,0)"/>
<path d="M0 0 C2 1 2 1 2 1 Z " fill="#FFFFFF" transform="translate(704,495)"/>
<path d="" fill="#FFFFFF" transform="translate(0,0)"/>
<path d="" fill="#FFFFFF" transform="translate(0,0)"/>
<path d="" fill="#FFFFFF" transform="translate(0,0)"/>
<path d="M0 0 C2 1 2 1 2 1 Z " fill="#FFFFFF" transform="translate(373,481)"/>
<path d="" fill="#FFFFFF" transform="translate(0,0)"/>
<path d="" fill="#FFFFFF" transform="translate(0,0)"/>
<path d="" fill="#FFFFFF" transform="translate(0,0)"/>
<path d="M0 0 C2 1 2 1 2 1 Z " fill="#FFFFFF" transform="translate(416,459)"/>
<path d="" fill="#FFFFFF" transform="translate(0,0)"/>
<path d="" fill="#FFFFFF" transform="translate(0,0)"/>
<path d="" fill="#FFFFFF" transform="translate(0,0)"/>
<path d="" fill="#FFFFFF" transform="translate(0,0)"/>
<path d="" fill="#FFFFFF" transform="translate(0,0)"/>
<path d="" fill="#FFFFFF" transform="translate(0,0)"/>
<path d="" fill="#FFFFFF" transform="translate(0,0)"/>
<path d="" fill="#FFFFFF" transform="translate(0,0)"/>
<path d="M0 0 C2 1 2 1 2 1 Z " fill="#FFFFFF" transform="translate(430,394)"/>
<path d="" fill="#FFFFFF" transform="translate(0,0)"/>
<path d="M0 0 C2 1 2 1 2 1 Z " fill="#FFFFFF" transform="translate(552,392)"/>
<path d="" fill="#FFFFFF" transform="translate(0,0)"/>
<path d="M0 0 C2 1 2 1 2 1 Z " fill="#FFFFFF" transform="translate(585,387)"/>
<path d="M0 0 C2 1 2 1 2 1 Z " fill="#FFFFFF" transform="translate(392,387)"/>
<path d="" fill="#FFFFFF" transform="translate(0,0)"/>
<path d="" fill="#FFFFFF" transform="translate(0,0)"/>
<path d="" fill="#FFFFFF" transform="translate(0,0)"/>
<path d="" fill="#FFFFFF" transform="translate(0,0)"/>
<path d="" fill="#FFFFFF" transform="translate(0,0)"/>
<path d="" fill="#FFFFFF" transform="translate(0,0)"/>
<path d="" fill="#FFFFFF" transform="translate(0,0)"/>
<path d="" fill="#FFFFFF" transform="translate(0,0)"/>
<path d="" fill="#FFFFFF" transform="translate(0,0)"/>
<path d="" fill="#FFFFFF" transform="translate(0,0)"/>
<path d="" fill="#FFFFFF" transform="translate(0,0)"/>
<path d="" fill="#FFFFFF" transform="translate(0,0)"/>
<path d="" fill="#FFFFFF" transform="translate(0,0)"/>
<path d="" fill="#FFFFFF" transform="translate(0,0)"/>
<path d="" fill="#FFFFFF" transform="translate(0,0)"/>
<path d="" fill="#FFFFFF" transform="translate(0,0)"/>
<path d="" fill="#FFFFFF" transform="translate(0,0)"/>
<path d="" fill="#FFFFFF" transform="translate(0,0)"/>
<path d="" fill="#FFFFFF" transform="translate(0,0)"/>
<path d="" fill="#FFFFFF" transform="translate(0,0)"/>
<path d="" fill="#FFFFFF" transform="translate(0,0)"/>
<path d="" fill="#FFFFFF" transform="translate(0,0)"/>
<path d="" fill="#FFFFFF" transform="translate(0,0)"/>
<path d="" fill="#FFFFFF" transform="translate(0,0)"/>
<path d="" fill="#FFFFFF" transform="translate(0,0)"/>
<path d="" fill="#FFFFFF" transform="translate(0,0)"/>
<path d="" fill="#FFFFFF" transform="translate(0,0)"/>
<path d="" fill="#FFFFFF" transform="translate(0,0)"/>
<path d="" fill="#FFFFFF" transform="translate(0,0)"/>
<path d="" fill="#FFFFFF" transform="translate(0,0)"/>
<path d="" fill="#FFFFFF" transform="translate(0,0)"/>
<path d="" fill="#FFFFFF" transform="translate(0,0)"/>
<path d="" fill="#FFFFFF" transform="translate(0,0)"/>
<path d="" fill="#FFFFFF" transform="translate(0,0)"/>
<path d="" fill="#FFFFFF" transform="translate(0,0)"/>
<path d="" fill="#FFFFFF" transform="translate(0,0)"/>
<path d="" fill="#FFFFFF" transform="translate(0,0)"/>
<path d="" fill="#FFFFFF" transform="translate(0,0)"/>
<path d="" fill="#FFFFFF" transform="translate(0,0)"/>
<path d="" fill="#FFFFFF" transform="translate(0,0)"/>
<path d="" fill="#FFFFFF" transform="translate(0,0)"/>
<path d="" fill="#FFFFFF" transform="translate(0,0)"/>
<path d="" fill="#FFFFFF" transform="translate(0,0)"/>
<path d="" fill="#FFFFFF" transform="translate(0,0)"/>
<path d="" fill="#FFFFFF" transform="translate(0,0)"/>
<path d="" fill="#FFFFFF" transform="translate(0,0)"/>
<path d="" fill="#FFFFFF" transform="translate(0,0)"/>
<path d="" fill="#FFFFFF" transform="translate(0,0)"/>
<path d="" fill="#FFFFFF" transform="translate(0,0)"/>
<path d="" fill="#FFFFFF" transform="translate(0,0)"/>
<path d="" fill="#FFFFFF" transform="translate(0,0)"/>
<path d="" fill="#FFFFFF" transform="translate(0,0)"/>
<path d="" fill="#FFFFFF" transform="translate(0,0)"/>
<path d="" fill="#FFFFFF" transform="translate(0,0)"/>
<path d="" fill="#FFFFFF" transform="translate(0,0)"/>
<path d="" fill="#FFFFFF" transform="translate(0,0)"/>
<path d="" fill="#FFFFFF" transform="translate(0,0)"/>
<path d="" fill="#FFFFFF" transform="translate(0,0)"/>
<path d="" fill="#FFFFFF" transform="translate(0,0)"/>
<path d="" fill="#FFFFFF" transform="translate(0,0)"/>
<path d="" fill="#FFFFFF" transform="translate(0,0)"/>
<path d="" fill="#FFFFFF" transform="translate(0,0)"/>
<path d="" fill="#FFFFFF" transform="translate(0,0)"/>
<path d="" fill="#FFFFFF" transform="translate(0,0)"/>
<path d="" fill="#FFFFFF" transform="translate(0,0)"/>
<path d="" fill="#FFFFFF" transform="translate(0,0)"/>
<path d="" fill="#FFFFFF" transform="translate(0,0)"/>
<path d="" fill="#FFFFFF" transform="translate(0,0)"/>
<path d="" fill="#FFFFFF" transform="translate(0,0)"/>
<path d="" fill="#FFFFFF" transform="translate(0,0)"/>
<path d="" fill="#FFFFFF" transform="translate(0,0)"/>
<path d="" fill="#FFFFFF" transform="translate(0,0)"/>
<path d="" fill="#FFFFFF" transform="translate(0,0)"/>
<path d="" fill="#FFFFFF" transform="translate(0,0)"/>
<path d="" fill="#FFFFFF" transform="translate(0,0)"/>
<path d="" fill="#FFFFFF" transform="translate(0,0)"/>
<path d="" fill="#FFFFFF" transform="translate(0,0)"/>
<path d="" fill="#FFFFFF" transform="translate(0,0)"/>
<path d="" fill="#FFFFFF" transform="translate(0,0)"/>
<path d="" fill="#FFFFFF" transform="translate(0,0)"/>
<path d="" fill="#FFFFFF" transform="translate(0,0)"/>
<path d="" fill="#FFFFFF" transform="translate(0,0)"/>
<path d="" fill="#FFFFFF" transform="translate(0,0)"/>
<path d="" fill="#FFFFFF" transform="translate(0,0)"/>
<path d="" fill="#FFFFFF" transform="translate(0,0)"/>
<path d="" fill="#FFFFFF" transform="translate(0,0)"/>
<path d="" fill="#FFFFFF" transform="translate(0,0)"/>
<path d="" fill="#FFFFFF" transform="translate(0,0)"/>
<path d="" fill="#FFFFFF" transform="translate(0,0)"/>
<path d="" fill="#FFFFFF" transform="translate(0,0)"/>
<path d="" fill="#FFFFFF" transform="translate(0,0)"/>
<path d="" fill="#FFFFFF" transform="translate(0,0)"/>
<path d="" fill="#FFFFFF" transform="translate(0,0)"/>
<path d="" fill="#FFFFFF" transform="translate(0,0)"/>
<path d="" fill="#FFFFFF" transform="translate(0,0)"/>
<path d="" fill="#FFFFFF" transform="translate(0,0)"/>
<path d="" fill="#FFFFFF" transform="translate(0,0)"/>
<path d="" fill="#FFFFFF" transform="translate(0,0)"/>
<path d="" fill="#FFFFFF" transform="translate(0,0)"/>
<path d="" fill="#FFFFFF" transform="translate(0,0)"/>
<path d="" fill="#FFFFFF" transform="translate(0,0)"/>
<path d="" fill="#FFFFFF" transform="translate(0,0)"/>
<path d="" fill="#FFFFFF" transform="translate(0,0)"/>
<path d="" fill="#FFFFFF" transform="translate(0,0)"/>
<path d="" fill="#FFFFFF" transform="translate(0,0)"/>
<path d="" fill="#FFFFFF" transform="translate(0,0)"/>
<path d="" fill="#FFFFFF" transform="translate(0,0)"/>
<path d="" fill="#FFFFFF" transform="translate(0,0)"/>
<path d="" fill="#FFFFFF" transform="translate(0,0)"/>
<path d="" fill="#FFFFFF" transform="translate(0,0)"/>
<path d="" fill="#FFFFFF" transform="translate(0,0)"/>
<path d="" fill="#FFFFFF" transform="translate(0,0)"/>
<path d="" fill="#FFFFFF" transform="translate(0,0)"/>
<path d="" fill="#FFFFFF" transform="translate(0,0)"/>
<path d="" fill="#FFFFDB" transform="translate(0,0)"/>
<path d="" fill="#FFFFFF" transform="translate(0,0)"/>
<path d="" fill="#FFFFFF" transform="translate(0,0)"/>
<path d="" fill="#FFFFFF" transform="translate(0,0)"/>
<path d="" fill="#FFFFFF" transform="translate(0,0)"/>
<path d="" fill="#FFFFFF" transform="translate(0,0)"/>
<path d="" fill="#FFFFFF" transform="translate(0,0)"/>
<path d="" fill="#FFFFFF" transform="translate(0,0)"/>
<path d="" fill="#FFFFFF" transform="translate(0,0)"/>
<path d="" fill="#FFFFFF" transform="translate(0,0)"/>
<path d="" fill="#FFFFFF" transform="translate(0,0)"/>
<path d="" fill="#FFFFFF" transform="translate(0,0)"/>
<path d="" fill="#FFFFFF" transform="translate(0,0)"/>
<path d="" fill="#FFFFFF" transform="translate(0,0)"/>
<path d="" fill="#FFFFFF" transform="translate(0,0)"/>
<path d="" fill="#FFFFFF" transform="translate(0,0)"/>
<path d="" fill="#FFFFFF" transform="translate(0,0)"/>
<path d="" fill="#FFFFFF" transform="translate(0,0)"/>
<path d="" fill="#FFFFFF" transform="translate(0,0)"/>
<path d="" fill="#FFFFFF" transform="translate(0,0)"/>
<path d="" fill="#FFFFFF" transform="translate(0,0)"/>
<path d="" fill="#FFFFFF" transform="translate(0,0)"/>
<path d="" fill="#FFFFFF" transform="translate(0,0)"/>
<path d="" fill="#FFFFFF" transform="translate(0,0)"/>
<path d="" fill="#FFFFFF" transform="translate(0,0)"/>
<path d="" fill="#FFFFFF" transform="translate(0,0)"/>
<path d="" fill="#FFFFFF" transform="translate(0,0)"/>
<path d="" fill="#FFFFFF" transform="translate(0,0)"/>
<path d="" fill="#FFFFFF" transform="translate(0,0)"/>
<path d="" fill="#FFFFFF" transform="translate(0,0)"/>
<path d="" fill="#FFFFFF" transform="translate(0,0)"/>
<path d="" fill="#FFFFFF" transform="translate(0,0)"/>
<path d="" fill="#FFFFFF" transform="translate(0,0)"/>
<path d="" fill="#FFFFFF" transform="translate(0,0)"/>
<path d="" fill="#FFFFFF" transform="translate(0,0)"/>
<path d="" fill="#FFFFFF" transform="translate(0,0)"/>
<path d="" fill="#FFFFFF" transform="translate(0,0)"/>
<path d="" fill="#FFFFFF" transform="translate(0,0)"/>
<path d="" fill="#FFFFFF" transform="translate(0,0)"/>
<path d="" fill="#FFFFFF" transform="translate(0,0)"/>
<path d="" fill="#FFFFFF" transform="translate(0,0)"/>
<path d="" fill="#FFFFFF" transform="translate(0,0)"/>
<path d="" fill="#FFFFFF" transform="translate(0,0)"/>
<path d="" fill="#FFFFFF" transform="translate(0,0)"/>
<path d="" fill="#FFFFFF" transform="translate(0,0)"/>
<path d="" fill="#FFFFFF" transform="translate(0,0)"/>
<path d="" fill="#FFFFFF" transform="translate(0,0)"/>
<path d="" fill="#FFFFFF" transform="translate(0,0)"/>
<path d="" fill="#FFFFFF" transform="translate(0,0)"/>
<path d="" fill="#FFFFFF" transform="translate(0,0)"/>
<path d="" fill="#FFFFFF" transform="translate(0,0)"/>
<path d="" fill="#FFFFFF" transform="translate(0,0)"/>
<path d="" fill="#FFFFFF" transform="translate(0,0)"/>
<path d="" fill="#FFFFFF" transform="translate(0,0)"/>
<path d="" fill="#FFFFFF" transform="translate(0,0)"/>
<path d="" fill="#FFFFFF" transform="translate(0,0)"/>
<path d="" fill="#FFFFFF" transform="translate(0,0)"/>
<path d="" fill="#FFFFFF" transform="translate(0,0)"/>
<path d="" fill="#FFFFFF" transform="translate(0,0)"/>
<path d="" fill="#FFFFFF" transform="translate(0,0)"/>
<path d="" fill="#FFFFFF" transform="translate(0,0)"/>
<path d="" fill="#FFFFFF" transform="translate(0,0)"/>
<path d="" fill="#FFFFFF" transform="translate(0,0)"/>
<path d="" fill="#FFFFFF" transform="translate(0,0)"/>
<path d="" fill="#FFFFFF" transform="translate(0,0)"/>
<path d="" fill="#FFFFFF" transform="translate(0,0)"/>
<path d="" fill="#FFFFFF" transform="translate(0,0)"/>
<path d="" fill="#FFFFFF" transform="translate(0,0)"/>
<path d="" fill="#FFFFFF" transform="translate(0,0)"/>
<path d="" fill="#FFFFFF" transform="translate(0,0)"/>
<path d="" fill="#FFFFFF" transform="translate(0,0)"/>
<path d="" fill="#FFFFFF" transform="translate(0,0)"/>
<path d="" fill="#FFFFFF" transform="translate(0,0)"/>
<path d="" fill="#FFFFFF" transform="translate(0,0)"/>
<path d="" fill="#FFFFFF" transform="translate(0,0)"/>
<path d="" fill="#FFFFFF" transform="translate(0,0)"/>
<path d="" fill="#FFFFFF" transform="translate(0,0)"/>
<path d="" fill="#FFFFFF" transform="translate(0,0)"/>
<path d="" fill="#FFFFFF" transform="translate(0,0)"/>
<path d="" fill="#FFFFFF" transform="translate(0,0)"/>
<path d="" fill="#FFFFFF" transform="translate(0,0)"/>
<path d="" fill="#FFFFFF" transform="translate(0,0)"/>
<path d="" fill="#FFFFFF" transform="translate(0,0)"/>
<path d="" fill="#FFFFFF" transform="translate(0,0)"/>
<path d="" fill="#FFFFFF" transform="translate(0,0)"/>
<path d="" fill="#FFFFFF" transform="translate(0,0)"/>
<path d="" fill="#FFFFFF" transform="translate(0,0)"/>
<path d="" fill="#FFFFFF" transform="translate(0,0)"/>
<path d="" fill="#FFFFFF" transform="translate(0,0)"/>
<path d="" fill="#FFFFFF" transform="translate(0,0)"/>
<path d="" fill="#FFFFFF" transform="translate(0,0)"/>
<path d="" fill="#FFFFFF" transform="translate(0,0)"/>
<path d="" fill="#FFFFFF" transform="translate(0,0)"/>
<path d="" fill="#FFFFFF" transform="translate(0,0)"/>
<path d="" fill="#FFFFFF" transform="translate(0,0)"/>
<path d="" fill="#FFFFFF" transform="translate(0,0)"/>
<path d="" fill="#FFFFFF" transform="translate(0,0)"/>
<path d="" fill="#FFFFFF" transform="translate(0,0)"/>
<path d="" fill="#FFFFFF" transform="translate(0,0)"/>
<path d="" fill="#FFFFFF" transform="translate(0,0)"/>
<path d="" fill="#FFFFFF" transform="translate(0,0)"/>
<path d="" fill="#FFFFFF" transform="translate(0,0)"/>
<path d="" fill="#FFFFFF" transform="translate(0,0)"/>
<path d="" fill="#FFFFFF" transform="translate(0,0)"/>
<path d="" fill="#FFFFFF" transform="translate(0,0)"/>
<path d="" fill="#FFFFFF" transform="translate(0,0)"/>
<path d="" fill="#FFFFFF" transform="translate(0,0)"/>
<path d="" fill="#FFFFFF" transform="translate(0,0)"/>
<path d="" fill="#FFFFFF" transform="translate(0,0)"/>
<path d="" fill="#FFFFFF" transform="translate(0,0)"/>
<path d="" fill="#FFFFFF" transform="translate(0,0)"/>
<path d="" fill="#FFFFFF" transform="translate(0,0)"/>
<path d="" fill="#FFFFFF" transform="translate(0,0)"/>
<path d="" fill="#FFFFFF" transform="translate(0,0)"/>
<path d="" fill="#FFFFFF" transform="translate(0,0)"/>
<path d="" fill="#FFFFFF" transform="translate(0,0)"/>
<path d="" fill="#FFFFFF" transform="translate(0,0)"/>
<path d="" fill="#FFFFFF" transform="translate(0,0)"/>
<path d="" fill="#FFFFFF" transform="translate(0,0)"/>
<path d="" fill="#FFFFFF" transform="translate(0,0)"/>
<path d="" fill="#FFFFFF" transform="translate(0,0)"/>
<path d="" fill="#FFFFFF" transform="translate(0,0)"/>
<path d="" fill="#FFFFFF" transform="translate(0,0)"/>
<path d="" fill="#FFFFFF" transform="translate(0,0)"/>
<path d="" fill="#FFFFFF" transform="translate(0,0)"/>
<path d="" fill="#FFFFFF" transform="translate(0,0)"/>
<path d="" fill="#FFFFFF" transform="translate(0,0)"/>
<path d="" fill="#FFFFFF" transform="translate(0,0)"/>
<path d="" fill="#FFFFFF" transform="translate(0,0)"/>
<path d="" fill="#FFFFFF" transform="translate(0,0)"/>
<path d="" fill="#FFFFFF" transform="translate(0,0)"/>
<path d="" fill="#FFFFFF" transform="translate(0,0)"/>
<path d="" fill="#FFFFFF" transform="translate(0,0)"/>
<path d="" fill="#FFFFFF" transform="translate(0,0)"/>
<path d="" fill="#FFFFFF" transform="translate(0,0)"/>
<path d="" fill="#FFFFFF" transform="translate(0,0)"/>
<path d="" fill="#FFFFFF" transform="translate(0,0)"/>
<path d="" fill="#FFFFFF" transform="translate(0,0)"/>
<path d="" fill="#FFFFFF" transform="translate(0,0)"/>
<path d="" fill="#FFFFFF" transform="translate(0,0)"/>
<path d="" fill="#FFFFFF" transform="translate(0,0)"/>
<path d="" fill="#FFFFFF" transform="translate(0,0)"/>
<path d="" fill="#FFFFFF" transform="translate(0,0)"/>
<path d="" fill="#FFFFFF" transform="translate(0,0)"/>
<path d="" fill="#FFFFFF" transform="translate(0,0)"/>
<path d="" fill="#FFFFFF" transform="translate(0,0)"/>
<path d="" fill="#FFFFFF" transform="translate(0,0)"/>
<path d="" fill="#FFFFFF" transform="translate(0,0)"/>
<path d="" fill="#FFFFFF" transform="translate(0,0)"/>
<path d="" fill="#FFFFFF" transform="translate(0,0)"/>
<path d="" fill="#FFFFFF" transform="translate(0,0)"/>
<path d="" fill="#FFFFFF" transform="translate(0,0)"/>
<path d="" fill="#FFFFFF" transform="translate(0,0)"/>
<path d="" fill="#FFFFFF" transform="translate(0,0)"/>
<path d="" fill="#FFFFFF" transform="translate(0,0)"/>
<path d="" fill="#FFFFFF" transform="translate(0,0)"/>
<path d="" fill="#FFFFFF" transform="translate(0,0)"/>
<path d="" fill="#FFFFFF" transform="translate(0,0)"/>
<path d="" fill="#FFFFFF" transform="translate(0,0)"/>
<path d="" fill="#FFFFFF" transform="translate(0,0)"/>
<path d="" fill="#FFFFFF" transform="translate(0,0)"/>
<path d="" fill="#FFFFFF" transform="translate(0,0)"/>
<path d="" fill="#FFFFFF" transform="translate(0,0)"/>
<path d="" fill="#FFFFFF" transform="translate(0,0)"/>
<path d="" fill="#FFFFFF" transform="translate(0,0)"/>
<path d="" fill="#FFFFFF" transform="translate(0,0)"/>
<path d="" fill="#FFFFFF" transform="translate(0,0)"/>
<path d="" fill="#FFFFFF" transform="translate(0,0)"/>
<path d="" fill="#FFFFFF" transform="translate(0,0)"/>
<path d="" fill="#FFFFFF" transform="translate(0,0)"/>
<path d="" fill="#FFFFFF" transform="translate(0,0)"/>
<path d="" fill="#FFFFFF" transform="translate(0,0)"/>
<path d="" fill="#FFFFFF" transform="translate(0,0)"/>
<path d="" fill="#FFFFFF" transform="translate(0,0)"/>
<path d="" fill="#FFFFFF" transform="translate(0,0)"/>
<path d="" fill="#FFFFFF" transform="translate(0,0)"/>
<path d="" fill="#FFFFFF" transform="translate(0,0)"/>
<path d="" fill="#FFFFFF" transform="translate(0,0)"/>
<path d="" fill="#FFFFFF" transform="translate(0,0)"/>
<path d="" fill="#FFFFFF" transform="translate(0,0)"/>
<path d="" fill="#FFFFFF" transform="translate(0,0)"/>
<path d="" fill="#FFFFFF" transform="translate(0,0)"/>
<path d="" fill="#FFFFFF" transform="translate(0,0)"/>
<path d="" fill="#FFFFFF" transform="translate(0,0)"/>
<path d="" fill="#FFFFFF" transform="translate(0,0)"/>
<path d="" fill="#FFFFFF" transform="translate(0,0)"/>
</svg>
